# Blender 4.5.13 LTS
# www.blender.org
mtllib Flashlight.mtl
o Cylinder
v 0.100000 0.000000 -0.300000
v 0.100000 0.000000 0.500000
v 0.070711 -0.070711 -0.300000
v 0.070711 -0.070711 0.500000
v 0.000000 -0.100000 -0.300000
v 0.000000 -0.100000 0.500000
v -0.070711 -0.070711 -0.300000
v -0.070711 -0.070711 0.500000
v -0.100000 -0.000000 -0.300000
v -0.100000 -0.000000 0.500000
v -0.070711 0.070711 -0.300000
v -0.070711 0.070711 0.500000
v -0.000000 0.100000 -0.300000
v -0.000000 0.100000 0.500000
v 0.070711 0.070711 -0.300000
v 0.070711 0.070711 0.500000
v 0.150000 0.000000 -0.500000
v 0.106066 -0.106066 -0.500000
v 0.000000 -0.150000 -0.500000
v -0.106066 -0.106066 -0.500000
v -0.150000 -0.000000 -0.500000
v -0.106066 0.106066 -0.500000
v -0.000000 0.150000 -0.500000
v 0.106066 0.106066 -0.500000
v 0.150000 0.000000 -0.600000
v 0.106066 -0.106066 -0.600000
v 0.000000 -0.150000 -0.600000
v -0.106066 -0.106066 -0.600000
v -0.150000 -0.000000 -0.600000
v -0.106066 0.106066 -0.600000
v -0.000000 0.150000 -0.600000
v 0.106066 0.106066 -0.600000
vn 1.0000 -0.0000 -0.0000
vn 0.7071 -0.7071 -0.0000
vn -0.0000 -1.0000 -0.0000
vn -0.7071 -0.7071 -0.0000
vn -1.0000 -0.0000 -0.0000
vn -0.7071 0.7071 -0.0000
vn -0.0000 1.0000 -0.0000
vn -0.0000 -0.0000 1.0000
vn 0.7071 0.7071 -0.0000
vn -0.0000 0.9701 0.2425
vn -0.7021 0.7021 0.1187
vn -0.6860 0.6860 0.2425
vn 0.7021 0.7021 0.1187
vn -0.0000 0.9929 0.1187
vn -0.6860 -0.6860 0.2425
vn -0.9929 -0.0000 0.1187
vn -0.7021 -0.7021 0.1187
vn 0.6860 0.6860 0.2425
vn -0.0000 -0.9701 0.2425
vn 0.7021 -0.7021 0.1187
vn 0.6860 -0.6860 0.2425
vn -0.9701 -0.0000 0.2425
vn 0.9701 -0.0000 0.2425
vn 0.9929 -0.0000 0.1187
vn -0.0000 -0.9929 0.1187
vn -0.0000 -0.0000 -1.0000
vt 0.044992 0.724887
vt 0.078642 0.002279
vt 0.078642 0.726587
vt 0.145291 0.727122
vt 0.145291 0.002814
vt 0.205900 0.726178
vt 0.205900 0.001870
vt 0.224962 0.724308
vt 0.334055 0.000579
vt 0.367704 0.726587
vt 0.334055 0.724887
vt 0.367704 0.002279
vt 0.434354 0.727122
vt 0.837950 0.918349
vt 0.641178 0.836843
vt 0.722684 0.640072
vt 0.434354 0.002814
vt 0.494962 0.726178
vt 0.494962 0.001870
vt 0.514025 0.724308
vt 0.339536 0.908659
vt 0.530423 0.908045
vt 0.439511 1.000000
vt 0.439511 0.909462
vt 0.269955 0.905240
vt 0.241361 0.908045
vt 0.050474 0.908659
vt 0.289062 0.906108
vt 0.000000 0.906108
vt 0.150449 0.909462
vt 0.543522 0.408439
vt 0.665780 0.113281
vt 0.960938 0.235539
vt 0.289062 0.996647
vt 0.150449 1.000000
vt 0.000000 0.996647
vt 0.559017 0.905240
vt 0.530423 0.998584
vt 0.339536 0.999198
vt 0.241361 0.998584
vt 0.050474 0.999198
vt 0.044992 0.000579
vt 0.224962 0.000000
vt 0.837950 0.640072
vt 0.919455 0.721577
vt 0.919455 0.836843
vt 0.722684 0.918349
vt 0.641178 0.721577
vt 0.514025 0.000000
vt 0.960938 0.408439
vt 0.838679 0.530697
vt 0.665780 0.530697
vt 0.543522 0.235539
vt 0.838679 0.113281
vt 0.559017 0.995779
vt 0.269955 0.995779
s 1
usemtl Material
f 1/1/1 4/2/2 3/3/2
f 4/2/2 5/4/3 3/3/2
f 6/5/3 7/6/4 5/4/3
f 8/7/4 9/8/5 7/6/4
f 10/9/5 11/10/6 9/11/5
f 12/12/6 13/13/7 11/10/6
f 14/14/8 10/15/8 6/16/8
f 14/17/7 15/18/9 13/13/7
f 16/19/9 1/20/1 15/18/9
f 13/13/10 22/21/11 11/10/12
f 24/22/13 31/23/7 23/24/14
f 7/6/15 21/25/16 20/26/17
f 15/18/18 23/24/14 13/13/10
f 5/4/19 18/27/20 3/3/21
f 9/11/22 22/21/11 21/28/16
f 1/20/23 24/22/13 15/18/18
f 3/3/21 17/29/24 1/1/23
f 7/6/15 19/30/25 5/4/19
f 28/31/26 30/32/26 32/33/26
f 22/21/11 29/34/5 21/28/16
f 20/26/17 27/35/3 19/30/25
f 18/27/20 25/36/1 17/29/24
f 17/37/24 32/38/9 24/22/13
f 23/24/14 30/39/6 22/21/11
f 21/25/16 28/40/4 20/26/17
f 19/30/25 26/41/2 18/27/20
f 1/1/1 2/42/1 4/2/2
f 4/2/2 6/5/3 5/4/3
f 6/5/3 8/7/4 7/6/4
f 8/7/4 10/43/5 9/8/5
f 10/9/5 12/12/6 11/10/6
f 12/12/6 14/17/7 13/13/7
f 6/16/8 4/44/8 2/45/8
f 2/45/8 16/46/8 14/14/8
f 14/14/8 12/47/8 10/15/8
f 10/15/8 8/48/8 6/16/8
f 6/16/8 2/45/8 14/14/8
f 14/17/7 16/19/9 15/18/9
f 16/19/9 2/49/1 1/20/1
f 13/13/10 23/24/14 22/21/11
f 24/22/13 32/38/9 31/23/7
f 7/6/15 9/8/22 21/25/16
f 15/18/18 24/22/13 23/24/14
f 5/4/19 19/30/25 18/27/20
f 9/11/22 11/10/12 22/21/11
f 1/20/23 17/37/24 24/22/13
f 3/3/21 18/27/20 17/29/24
f 7/6/15 20/26/17 19/30/25
f 32/33/26 25/50/26 26/51/26
f 26/51/26 27/52/26 28/31/26
f 28/31/26 29/53/26 30/32/26
f 30/32/26 31/54/26 32/33/26
f 32/33/26 26/51/26 28/31/26
f 22/21/11 30/39/6 29/34/5
f 20/26/17 28/40/4 27/35/3
f 18/27/20 26/41/2 25/36/1
f 17/37/24 25/55/1 32/38/9
f 23/24/14 31/23/7 30/39/6
f 21/25/16 29/56/5 28/40/4
f 19/30/25 27/35/3 26/41/2
